<svg id="Layer_1" data-name="Layer 1" xmlns="http://www.w3.org/2000/svg" viewBox="0 0 477.8 314.95"><defs><style>.cls-1{fill:#00194f;}.cls-2{font-size:133.62px;font-family:TwCenMT-CondensedBold, Tw Cen MT Condensed;font-weight:700;}.cls-2,.cls-5{fill:none;}.cls-3,.cls-5{stroke:#00194f;stroke-miterlimit:10;}.cls-3{stroke-width:3px;}.cls-4{fill:#fff;}.cls-5{stroke-width:2px;}</style></defs><path class="cls-1" d="M483.66,378.16l-.22,9.28-23.77,11.05c-13.08,6.14-25.26,11.71-27.12,12.43-6.53,2.75-5.94-3.47-5.94,61.42v57.54H541L540.86,472l-.22-57.87-3-1.86c-1.56-1-13.89-6.77-27.27-12.83L486,388.33V378.08C486,372,483.74,373.07,483.66,378.16Z" transform="translate(-253.99 -360.82)"/><path class="cls-1" d="M545.39,476.09v53.67H688.76v-91.2h-6.61l-.22,5.9-.23,6-66.48-13.56c-36.55-7.51-67.23-13.8-68.12-14l-1.71-.41Z" transform="translate(-253.99 -360.82)"/><path class="cls-1" d="M359.38,437.76c-34.32,7-62.47,12.91-62.62,13.07s-.07,18,.22,39.63l.45,39.3H422V477.3c0-28.89-.08-52.46-.15-52.37S393.63,430.74,359.38,437.76Z" transform="translate(-253.99 -360.82)"/><path class="cls-1" d="M293,484.16v45.6H299v-91.2H293Z" transform="translate(-253.99 -360.82)"/><rect class="cls-1" x="10.69" y="173.42" width="449.98" height="21.53"/><text class="cls-2" transform="translate(1.5 282.33) scale(1.21 1)"><tspan class="cls-3">E</tspan><tspan class="cls-1" x="52.91" y="0">-LEARN</tspan></text><path class="cls-4" d="M587.8,457.66a14.05,14.05,0,0,1,7.53,6.84c1.51,2.67,1.58,3.62,1.8,31.19l.28,28.46-1.72.41c-.86.27-8,.48-15.86.48h-14.2l.21-28.94c.22-28.05.29-28.93,1.79-31.6,3-5.27,7.25-7.8,13.35-7.87A24,24,0,0,1,587.8,457.66Z" transform="translate(-253.99 -360.82)"/><polygon class="cls-4" points="353.33 113.25 353.33 121.12 350.82 121.12 348.31 121.12 348.31 113.25 348.31 105.39 350.82 105.39 353.33 105.39 353.33 113.25"/><path class="cls-4" d="M651.81,471.89a10.8,10.8,0,0,1,4.8,4.58c1.65,2.94,1.65,3.28,1.65,25.79V525l-12.34-.14-12.41-.2-.22-21.55c-.14-13.61.07-22.44.58-24a11.61,11.61,0,0,1,6.74-7.53A12.19,12.19,0,0,1,651.81,471.89Z" transform="translate(-253.99 -360.82)"/><path class="cls-4" d="M560.67,491.52v11.63h-5.74V492c0-6.16.22-11.43.51-11.63a5.66,5.66,0,0,1,2.87-.48h2.36Z" transform="translate(-253.99 -360.82)"/><polygon class="cls-4" points="353.33 134.46 353.33 142.33 350.82 142.33 348.31 142.33 348.31 134.46 348.31 126.59 350.82 126.59 353.33 126.59 353.33 134.46"/><polygon class="cls-4" points="374.86 134.46 374.86 142.33 372.35 142.33 369.83 142.33 369.83 134.46 369.83 126.59 372.35 126.59 374.86 126.59 374.86 134.46"/><polygon class="cls-4" points="412.89 134.46 412.89 142.33 410.38 142.33 407.87 142.33 407.87 134.46 407.87 126.59 410.38 126.59 412.89 126.59 412.89 134.46"/><path class="cls-4" d="M560.32,516.83v7.87h-5l-.21-7.12a52.56,52.56,0,0,1,.21-8.07c.22-.62,1.22-.89,2.66-.75l2.37.2Z" transform="translate(-253.99 -360.82)"/><polygon class="cls-4" points="353.19 156.15 353.4 164.22 350.82 164.22 348.31 164.22 348.31 155.94 348.31 147.73 350.67 147.94 352.97 148.14 353.19 156.15"/><path class="cls-4" d="M628.84,516.83V525h-5v-7.73c0-4.31.22-8,.5-8.21a4.75,4.75,0,0,1,2.51-.48h2Z" transform="translate(-253.99 -360.82)"/><polygon class="cls-4" points="412.89 156.01 412.89 163.53 410.38 163.53 407.87 163.53 407.87 156.01 407.87 148.48 410.38 148.48 412.89 148.48 412.89 156.01"/><path class="cls-4" d="M495.51,414a22,22,0,0,1,6.37,6.07c2.2,3.42,2.45,4.51,3,14,.81,12.53.9,70.72.16,82.78l-.49,8.79H464.18l-.57-15.4c-.33-8.41-.41-30.73-.17-49.64.49-36.95.49-37,5.06-42.79a21.11,21.11,0,0,1,6.29-4.59c3.75-1.79,5.14-2,10.52-1.79C490.45,411.62,492.09,412.08,495.51,414Z" transform="translate(-253.99 -360.82)"/><polygon class="cls-4" points="201.66 84.33 201.66 93.27 198.4 93.27 195.13 93.27 195.13 84.33 195.13 75.38 198.4 75.38 201.66 75.38 201.66 84.33"/><polygon class="cls-4" points="263.89 84.33 263.89 93.27 261.03 93.27 258.18 93.27 258.18 84.33 258.18 75.38 261.03 75.38 263.89 75.38 263.89 84.33"/><polygon class="cls-4" points="263.89 108.45 263.89 117.39 260.8 117.39 257.71 117.39 257.71 108.45 257.71 99.5 260.8 99.5 263.89 99.5 263.89 108.45"/><polygon class="cls-4" points="263.89 144.62 263.89 164.07 261.03 164.07 258.18 164.07 258.18 144.62 258.18 125.17 261.03 125.17 263.89 125.17 263.89 144.62"/><polygon class="cls-4" points="201.56 143.16 201.56 163.23 198.29 163.23 195.03 163.23 195.03 143.16 195.03 123.08 198.29 123.08 201.56 123.08 201.56 143.16"/><polygon class="cls-4" points="201.56 108.45 201.56 117.39 198.29 117.39 195.03 117.39 195.03 108.45 195.03 99.5 198.29 99.5 201.56 99.5 201.56 108.45"/><path class="cls-4" d="M384.72,457.66a14.11,14.11,0,0,0-7.54,6.84c-1.5,2.67-1.57,3.62-1.79,31.19l-.29,28.46,1.73.41c.86.27,8,.48,15.85.48h14.21l-.21-28.94c-.22-28.05-.29-28.93-1.8-31.6-2.94-5.27-7.25-7.8-13.34-7.87A24,24,0,0,0,384.72,457.66Z" transform="translate(-253.99 -360.82)"/><polygon class="cls-4" points="111.21 113.25 111.21 121.12 113.72 121.12 116.24 121.12 116.24 113.25 116.24 105.39 113.72 105.39 111.21 105.39 111.21 113.25"/><path class="cls-4" d="M320.71,471.89a10.88,10.88,0,0,0-4.81,4.58c-1.65,2.94-1.65,3.28-1.65,25.79V525l12.35-.14,12.41-.2.21-21.55c.15-13.61-.07-22.44-.57-24a11.61,11.61,0,0,0-6.74-7.53A12.19,12.19,0,0,0,320.71,471.89Z" transform="translate(-253.99 -360.82)"/><path class="cls-4" d="M411.84,491.52v11.63h5.74V492c0-6.16-.21-11.43-.5-11.63a5.68,5.68,0,0,0-2.87-.48h-2.37Z" transform="translate(-253.99 -360.82)"/><polygon class="cls-4" points="111.21 134.46 111.21 142.33 113.72 142.33 116.24 142.33 116.24 134.46 116.24 126.59 113.72 126.59 111.21 126.59 111.21 134.46"/><polygon class="cls-4" points="89.69 133.75 89.69 142.33 92.2 142.33 94.71 142.33 94.71 133.75 94.71 125.17 92.2 125.17 89.69 125.17 89.69 133.75"/><polygon class="cls-4" points="51.66 134.46 51.66 142.33 54.17 142.33 56.68 142.33 56.68 134.46 56.68 126.59 54.17 126.59 51.66 126.59 51.66 134.46"/><path class="cls-4" d="M412.2,516.83v7.87h5l.22-7.12a50.62,50.62,0,0,0-.22-8.07c-.21-.62-1.22-.89-2.65-.75l-2.37.2Z" transform="translate(-253.99 -360.82)"/><polygon class="cls-4" points="111.36 156.15 111.14 164.22 113.72 164.22 116.24 164.22 116.24 155.94 116.24 147.73 113.87 147.94 111.57 148.14 111.36 156.15"/><path class="cls-4" d="M343.67,516.83V525h5v-7.73c0-4.31-.22-8-.51-8.21a4.7,4.7,0,0,0-2.51-.48h-2Z" transform="translate(-253.99 -360.82)"/><polygon class="cls-4" points="51.66 156.01 51.66 163.53 54.17 163.53 56.68 163.53 56.68 156.01 56.68 148.48 54.17 148.48 51.66 148.48 51.66 156.01"/><polygon class="cls-4" points="163.13 108.37 163.13 114.61 160.62 114.61 158.11 114.61 158.11 108.37 158.11 102.13 160.62 102.13 163.13 102.13 163.13 108.37"/><polygon class="cls-4" points="306.33 108.7 306.33 115.27 303.82 115.27 301.31 115.27 301.31 108.7 301.31 102.13 303.82 102.13 306.33 102.13 306.33 108.7"/><circle class="cls-5" cx="441.47" cy="94.28" r="3.08"/><line class="cls-5" x1="453.15" y1="168.36" x2="453.15" y2="139.81"/><line class="cls-5" x1="441.47" y1="168.36" x2="441.47" y2="97.71"/><circle class="cls-5" cx="453.15" cy="136.73" r="3.08"/><line class="cls-5" x1="445.66" y1="126.29" x2="463.27" y2="106.48"/><line class="cls-5" x1="462.94" y1="107.03" x2="462.94" y2="87.57"/><circle class="cls-5" cx="462.94" cy="84.49" r="3.08"/><line class="cls-5" x1="445.9" y1="168.36" x2="445.9" y2="125.8"/><circle class="cls-5" cx="33.01" cy="94.28" r="3.08"/><line class="cls-5" x1="21.6" y1="168.36" x2="21.6" y2="139.81"/><line class="cls-5" x1="33.29" y1="168.36" x2="33.29" y2="97.71"/><circle class="cls-5" cx="21.6" cy="136.73" r="3.08"/><line class="cls-5" x1="29.09" y1="126.29" x2="11.48" y2="106.48"/><line class="cls-5" x1="11.82" y1="107.03" x2="11.82" y2="87.57"/><circle class="cls-5" cx="11.82" cy="84.49" r="3.08"/><line class="cls-5" x1="28.85" y1="168.36" x2="28.85" y2="125.8"/><text x="-253.99" y="-360.82"/><path class="cls-1" d="M487.55,368.29v7.37h18.87l-.33-7.16-.33-7.05-9.05-.31-9.16-.32Z" transform="translate(-253.99 -360.82)"/><path class="cls-1" d="M508.74,370.61l.33,7.68,4.75.31c2.53.21,4.63.11,4.63-.1a21.56,21.56,0,0,0-1.54-4c-1.33-3.05-1.33-4.1,0-7.15a26.27,26.27,0,0,0,1.54-3.9c0-.21-2.21-.42-5-.42h-5.07Z" transform="translate(-253.99 -360.82)"/></svg>