<svg width="58" height="55" viewBox="0 0 58 55" fill="none" xmlns="http://www.w3.org/2000/svg">
<path d="M20.25 9C16.7982 9 14 11.7982 14 15.25V32.75C14 36.2018 16.7982 39 20.25 39H37.75C41.2018 39 44 36.2018 44 32.75V30.3123L49.9612 34.9678C51.6027 36.2497 54 35.0801 54 32.9975V15.0024C54 12.9197 51.6026 11.7502 49.9612 13.0321L44 17.6877V15.25C44 11.7982 41.2018 9 37.75 9H20.25ZM44 20.8598L51.5 15.0024V32.9975L44 27.1402V20.8598ZM41.5 15.25V32.75C41.5 34.8211 39.8211 36.5 37.75 36.5H20.25C18.1789 36.5 16.5 34.8211 16.5 32.75V15.25C16.5 13.1789 18.1789 11.5 20.25 11.5H37.75C39.8211 11.5 41.5 13.1789 41.5 15.25Z" fill="#00194F"/>
<path d="M14 29C20.6274 29 26 34.3726 26 41C26 47.6274 20.6274 53 14 53C7.37258 53 2 47.6274 2 41C2 34.3726 7.37258 29 14 29ZM14 35C13.6203 35 13.3065 35.2822 13.2568 35.6482L13.25 35.75V40.25H8.75C8.33579 40.25 8 40.5858 8 41C8 41.3797 8.28215 41.6935 8.64823 41.7432L8.75 41.75H13.25V46.25C13.25 46.6642 13.5858 47 14 47C14.3797 47 14.6935 46.7178 14.7432 46.3518L14.75 46.25V41.75H19.25C19.6642 41.75 20 41.4142 20 41C20 40.6203 19.7178 40.3065 19.3518 40.2568L19.25 40.25H14.75V35.75C14.75 35.3358 14.4142 35 14 35Z" fill="#00194F"/>
</svg>
