<svg width="44" height="44" viewBox="0 0 44 44" fill="none" xmlns="http://www.w3.org/2000/svg">
<rect x="0.5" y="0.5" width="43" height="43" rx="4.5" stroke="#D8D8D8"/>
<path d="M27.5004 22.0003C30.5379 22.0003 33.0004 24.4627 33.0004 27.5003C33.0004 30.5378 30.5379 33.0003 27.5004 33.0003C24.4628 33.0003 22.0004 30.5378 22.0004 27.5003C22.0004 24.4627 24.4628 22.0003 27.5004 22.0003ZM22.0226 23.9996C21.7259 24.4629 21.4864 24.9663 21.314 25.4999L14.2528 25.5002C13.8392 25.5002 13.5039 25.8355 13.5039 26.2491V26.8267C13.5039 27.3624 13.695 27.8805 14.0429 28.2878C15.2962 29.7555 17.2621 30.5013 20.0004 30.5013C20.5968 30.5013 21.1567 30.4659 21.6806 30.3954C21.9258 30.8903 22.2333 31.3489 22.5921 31.7618C21.7966 31.922 20.9317 32.0013 20.0004 32.0013C16.8545 32.0013 14.4685 31.0962 12.9022 29.2619C12.3224 28.583 12.0039 27.7195 12.0039 26.8267V26.2491C12.0039 25.007 13.0108 24.0002 14.2528 24.0002L22.0226 23.9996ZM27.5004 24.0002L27.4105 24.0083C27.2064 24.0453 27.0455 24.2063 27.0084 24.4104L27.0004 24.5002L26.9994 27.0003H24.5043L24.4144 27.0083C24.2103 27.0454 24.0494 27.2063 24.0123 27.4104L24.0043 27.5003L24.0123 27.5901C24.0494 27.7942 24.2103 27.9552 24.4144 27.9922L24.5043 28.0003H26.9994L27.0004 30.5002L27.0084 30.5901C27.0455 30.7942 27.2064 30.9551 27.4105 30.9922L27.5004 31.0002L27.5902 30.9922C27.7943 30.9551 27.9553 30.7942 27.9923 30.5901L28.0004 30.5002L27.9994 28.0003H30.5043L30.5941 27.9922C30.7982 27.9552 30.9592 27.7942 30.9962 27.5901L31.0043 27.5003L30.9962 27.4104C30.9592 27.2063 30.7982 27.0454 30.5941 27.0083L30.5043 27.0003H27.9994L28.0004 24.5002L27.9923 24.4104C27.9553 24.2063 27.7943 24.0453 27.5902 24.0083L27.5004 24.0002ZM20.0004 12.0049C22.7618 12.0049 25.0004 14.2435 25.0004 17.0049C25.0004 19.7663 22.7618 22.0049 20.0004 22.0049C17.2389 22.0049 15.0004 19.7663 15.0004 17.0049C15.0004 14.2435 17.2389 12.0049 20.0004 12.0049ZM20.0004 13.5049C18.0674 13.5049 16.5004 15.0719 16.5004 17.0049C16.5004 18.9379 18.0674 20.5049 20.0004 20.5049C21.9334 20.5049 23.5004 18.9379 23.5004 17.0049C23.5004 15.0719 21.9334 13.5049 20.0004 13.5049Z" fill="#484848"/>
</svg>
