<svg width="60" height="60" viewBox="0 0 60 60" fill="none" xmlns="http://www.w3.org/2000/svg">
<path opacity="0.21" fill-rule="evenodd" clip-rule="evenodd" d="M0 30V37C0 49.7025 10.2975 60 23 60H30H37C49.7025 60 60 49.7025 60 37V30V23C60 10.2975 49.7025 0 37 0H30H23C10.2975 0 0 10.2975 0 23V30Z" fill="#57D9A3"/>
<path d="M45.037 21.1783H43.0555V16.1075C43.0545 15.2837 42.7268 14.4938 42.1442 13.9112C41.5617 13.3287 40.7718 13.001 39.948 13H20.6374C19.8135 13.001 19.0237 13.3287 18.4411 13.9112C17.8586 14.4938 17.5309 15.2837 17.5299 16.1075V21.1783H15.5484C15.4029 21.1783 15.2635 21.2361 15.1606 21.3389C15.0578 21.4417 15 21.5812 15 21.7267V41.103C15 41.2485 15.0578 41.3879 15.1606 41.4908C15.2635 41.5936 15.4029 41.6514 15.5484 41.6514H29.7443V45.9032H25.4194C25.2739 45.9032 25.1344 45.961 25.0316 46.0638C24.9287 46.1667 24.871 46.3062 24.871 46.4516C24.871 46.5971 24.9287 46.7365 25.0316 46.8394C25.1344 46.9422 25.2739 47 25.4194 47H35.166C35.3115 47 35.4509 46.9422 35.5538 46.8394C35.6566 46.7365 35.7144 46.5971 35.7144 46.4516C35.7144 46.3062 35.6566 46.1667 35.5538 46.0638C35.4509 45.961 35.3115 45.9032 35.166 45.9032H30.8411V41.6477H45.037C45.1824 41.6477 45.3219 41.59 45.4248 41.4871C45.5276 41.3843 45.5854 41.2448 45.5854 41.0994V21.723C45.5844 21.5782 45.5262 21.4397 45.4235 21.3376C45.3207 21.2356 45.1818 21.1783 45.037 21.1783ZM18.6267 21.1783V16.6669H41.9587V29.1372C41.9587 29.6705 41.7469 30.1819 41.3698 30.559C40.9927 30.9361 40.4812 31.148 39.948 31.148H27.5178V28.5596H29.4372C29.9319 28.5577 30.4073 28.3678 30.7671 28.0284C31.127 27.6889 31.3442 27.2253 31.3748 26.7316L31.7551 25.6129H39.4946V18.6411H29.6492V25.6129H30.5998L30.4389 26.0553H28.9071V24.0372C28.906 23.6664 28.7991 23.3037 28.599 22.9916C28.3989 22.6794 28.1139 22.4309 27.7774 22.2751C27.5209 22.1508 27.2398 22.0859 26.9548 22.0849H23.043C22.758 22.0859 22.4769 22.1508 22.2204 22.2751C21.884 22.4309 21.599 22.6794 21.3989 22.9916C21.1988 23.3037 21.0919 23.6664 21.0908 24.0372V29.1555C21.0921 29.5762 21.2296 29.9851 21.4827 30.3212C21.7357 30.6572 22.0907 30.9024 22.4946 31.02V31.1333H20.6374C20.1041 31.1333 19.5927 30.9215 19.2156 30.5444C18.8385 30.1673 18.6267 29.6559 18.6267 29.1226V21.1783ZM24.871 14.1077V15.5701H18.7034C18.8233 15.1494 19.0769 14.7792 19.4258 14.5154C19.7747 14.2515 20.2 14.1085 20.6374 14.1077H24.871ZM25.9677 14.1077H39.948C40.3854 14.1085 40.8107 14.2515 41.1596 14.5154C41.5085 14.7792 41.7621 15.1494 41.8819 15.5701H25.9677V14.1077ZM25.54 31.148V30.7312H24.4432V31.1662H23.5914V29.9963H26.4065V30.5923V31.1662L25.54 31.148ZM30.746 24.5161V19.7378H38.3978V24.5161H32.1572L32.6946 23.0172L31.6637 22.6516L30.991 24.5161H30.746ZM26.9548 23.1817C27.1817 23.1817 27.3993 23.2719 27.5598 23.4323C27.7202 23.5927 27.8103 23.8103 27.8103 24.0372V27.152H30.0806C30.0007 27.2492 29.9003 27.3275 29.7865 27.3812C29.6727 27.435 29.5484 27.4628 29.4226 27.4628H27.5032V25.4849C27.5032 25.3395 27.4454 25.2 27.3426 25.0972C27.2398 24.9943 27.1003 24.9366 26.9548 24.9366C26.8094 24.9366 26.6699 24.9943 26.5671 25.0972C26.4642 25.2 26.4065 25.3395 26.4065 25.4849V28.8813H23.5914V25.4849C23.5914 25.3395 23.5336 25.2 23.4308 25.0972C23.3279 24.9943 23.1885 24.9366 23.043 24.9366C22.8976 24.9366 22.7581 24.9943 22.6552 25.0972C22.5524 25.2 22.4946 25.3395 22.4946 25.4849V29.8209C22.3989 29.7415 22.3217 29.6421 22.2686 29.5297C22.2156 29.4172 22.1879 29.2945 22.1875 29.1701V24.0518C22.1875 23.8249 22.2777 23.6073 22.4381 23.4469C22.5985 23.2865 22.8161 23.1963 23.043 23.1963L26.9548 23.1817ZM44.5032 40.551H16.0968V22.2714H17.5299V29.1372C17.5309 29.9611 17.8586 30.7509 18.4411 31.3335C19.0237 31.9161 19.8135 32.2438 20.6374 32.2447H22.8821C22.9879 32.2788 23.1017 32.2788 23.2075 32.2447H39.948C40.7718 32.2438 41.5617 31.9161 42.1442 31.3335C42.7268 30.7509 43.0545 29.9611 43.0555 29.1372V22.2751H44.4886L44.5032 40.551Z" fill="#57D9A3"/>
<path d="M20.4547 35.1621H19.3579V37.6335H20.4547V35.1621Z" fill="#57D9A3"/>
<path d="M18.6263 35.1621H17.5295V37.6335H18.6263V35.1621Z" fill="#57D9A3"/>
<path d="M29.2877 34.215C28.8053 34.2175 28.3372 34.379 27.9559 34.6744C27.5745 34.9699 27.3012 35.3828 27.1782 35.8492H21.6943V36.946H27.1782C27.3111 37.4016 27.5882 37.8018 27.9679 38.0866C28.3476 38.3714 28.8094 38.5253 29.284 38.5253C29.7586 38.5253 30.2204 38.3714 30.6001 38.0866C30.9798 37.8018 31.2569 37.4016 31.3898 36.946H42.5038V35.8492H31.3898C31.2671 35.384 30.9949 34.972 30.6151 34.6767C30.2352 34.3814 29.7688 34.2191 29.2877 34.215ZM29.2877 37.4797C29.045 37.4825 28.8082 37.4048 28.6145 37.2586C28.4207 37.1124 28.2809 36.9061 28.217 36.672C28.153 36.4379 28.1685 36.1891 28.2611 35.9648C28.3536 35.7404 28.518 35.5531 28.7284 35.4321C28.9388 35.3112 29.1834 35.2635 29.4239 35.2964C29.6643 35.3294 29.8871 35.4411 30.0572 35.6142C30.2273 35.7873 30.3352 36.012 30.364 36.253C30.3928 36.4939 30.3408 36.7377 30.2163 36.946C30.12 37.1069 29.9841 37.2405 29.8216 37.3339C29.659 37.4274 29.4752 37.4776 29.2877 37.4797ZM25.098 21.8105C25.5003 21.8105 25.8935 21.6913 26.2282 21.468C26.5628 21.2448 26.8238 20.9274 26.9783 20.5559C27.1327 20.1845 27.1737 19.7756 27.096 19.3809C27.0183 18.9862 26.8254 18.6233 26.5417 18.3381C26.258 18.0529 25.8962 17.8581 25.5019 17.7783C25.1077 17.6985 24.6986 17.7372 24.3263 17.8897C23.954 18.0421 23.6352 18.3014 23.4102 18.6348C23.1851 18.9683 23.0638 19.3609 23.0616 19.7632C23.0645 20.3024 23.28 20.8186 23.6613 21.1999C24.0425 21.5812 24.5588 21.7966 25.098 21.7995V21.8105ZM25.098 18.8346C25.2843 18.8346 25.4664 18.89 25.6211 18.9937C25.7759 19.0974 25.8963 19.2448 25.967 19.4172C26.0378 19.5895 26.0558 19.779 26.0186 19.9615C25.9815 20.1441 25.8909 20.3114 25.7584 20.4424C25.6259 20.5734 25.4575 20.662 25.2745 20.697C25.0915 20.732 24.9023 20.7118 24.7308 20.639C24.5593 20.5662 24.4133 20.4441 24.3114 20.2881C24.2095 20.1322 24.1562 19.9495 24.1584 19.7632C24.1613 19.5159 24.2616 19.2797 24.4375 19.1059C24.6134 18.932 24.8507 18.8346 25.098 18.8346ZM32.6475 22.5161C32.752 22.6185 32.8923 22.6762 33.0386 22.6769C33.1839 22.676 33.323 22.6183 33.4262 22.5161C33.4916 22.4483 33.5393 22.3654 33.5651 22.2748C33.5778 22.227 33.5851 22.1779 33.587 22.1285C33.5871 21.982 33.5293 21.8415 33.4262 21.7374C33.3197 21.6403 33.1809 21.5864 33.0368 21.5864C32.8927 21.5864 32.7539 21.6403 32.6475 21.7374C32.5457 21.8423 32.4881 21.9824 32.4866 22.1285C32.4867 22.1781 32.4941 22.2274 32.5085 22.2748C32.5341 22.3655 32.5818 22.4484 32.6475 22.5161ZM35.7184 22.5161C35.7971 22.5904 35.8943 22.6422 35.9999 22.666H36.106C36.1796 22.6693 36.2532 22.6577 36.3223 22.632C36.3914 22.6062 36.4546 22.5668 36.5081 22.5161C36.5735 22.4483 36.6212 22.3654 36.647 22.2748C36.6597 22.227 36.667 22.1779 36.669 22.1285C36.669 22.092 36.669 22.0554 36.669 22.0189C36.6613 21.9838 36.6503 21.9495 36.6361 21.9165C36.6212 21.8837 36.6041 21.8519 36.5849 21.8214C36.5626 21.7906 36.5368 21.7624 36.5081 21.7374C36.483 21.7135 36.4561 21.6915 36.4277 21.6716C36.3976 21.6517 36.3658 21.6346 36.3326 21.6204C36.2955 21.6042 36.256 21.5943 36.2156 21.5911C36.1271 21.5736 36.0356 21.5777 35.9491 21.6032C35.8625 21.6287 35.7834 21.6747 35.7184 21.7374C35.6695 21.79 35.63 21.8506 35.6014 21.9165C35.572 21.9833 35.557 22.0556 35.5576 22.1285C35.5595 22.1779 35.5668 22.227 35.5795 22.2748C35.6053 22.3654 35.653 22.4483 35.7184 22.5161ZM34.044 22.2748L34.0659 22.3369C34.0945 22.4029 34.1341 22.4634 34.1829 22.5161C34.287 22.6192 34.4276 22.677 34.5741 22.6769H34.6801C34.7152 22.6693 34.7495 22.6583 34.7825 22.644C34.8484 22.6155 34.909 22.5759 34.9616 22.527C34.9924 22.4979 35.0205 22.466 35.0457 22.432C35.0663 22.4023 35.0835 22.3705 35.0969 22.3369L35.1189 22.2748V22.2346C35.1223 22.1993 35.1223 22.1638 35.1189 22.1285C35.1163 21.9826 35.0588 21.8429 34.958 21.7374C34.9316 21.7134 34.9035 21.6914 34.8739 21.6716C34.8443 21.6509 34.8124 21.6338 34.7789 21.6204C34.7475 21.606 34.7143 21.5962 34.6801 21.5911C34.5916 21.5739 34.5002 21.5782 34.4137 21.6036C34.3272 21.6291 34.248 21.6749 34.1829 21.7374C34.0808 21.8418 34.0243 21.9825 34.0257 22.1285C34.0222 22.1638 34.0222 22.1993 34.0257 22.2346L34.044 22.2748Z" fill="#57D9A3"/>
</svg>
