<svg width="34" height="42" viewBox="0 0 34 42" fill="none" xmlns="http://www.w3.org/2000/svg">
<path d="M4.75783 0C2.13179 0 0 2.06635 0 4.61117V32.2545C0 34.7967 2.13179 36.8604 4.75783 36.8604H17.0272C17.0462 36.8604 17.057 36.8446 17.0815 36.842C17.7643 38.3717 18.8941 39.6749 20.3319 40.5913C21.7696 41.5077 23.4527 41.9973 25.1741 42C27.514 41.9972 29.7572 41.0961 31.4118 39.4944C33.0663 37.8927 33.9971 35.7211 34 33.4559C33.9964 31.7619 33.4731 30.1072 32.4965 28.7016C31.5198 27.296 30.1338 26.203 28.5144 25.5612V11.2282C28.5144 11.2072 28.4899 11.1914 28.4872 11.1678C28.4966 10.998 28.4361 10.8316 28.3188 10.7051L17.4562 0.189284C17.315 0.0578367 17.1195 0.0210315 16.9294 0.0315473C16.9022 0.0289184 16.8832 0 16.8561 0H4.75783ZM4.75783 1.31447H16.2939V7.26114C16.2939 9.7823 18.4121 11.8302 21.0137 11.8302H27.1565V25.1485C26.5073 24.9962 25.8421 24.9168 25.1741 24.9119C22.8342 24.9146 20.591 25.8157 18.9365 27.4174C17.2819 29.0192 16.3511 31.1908 16.3482 33.4559C16.3482 34.1815 16.4677 34.8756 16.6442 35.5459H4.75783C2.88403 35.5459 1.35783 34.0632 1.35783 32.2492V4.61117C1.35783 2.79457 2.88403 1.31447 4.75783 1.31447ZM17.6518 2.34502L26.1382 10.5158H21.0137C20.1225 10.5144 19.2682 10.171 18.638 9.56098C18.0079 8.95092 17.6532 8.1239 17.6518 7.26114V2.34502ZM25.1741 26.2263C27.1543 26.2277 29.053 26.9899 30.4532 28.3454C31.8535 29.7009 32.6407 31.539 32.6422 33.4559C32.6407 35.3729 31.8535 37.211 30.4532 38.5665C29.053 39.922 27.1543 40.6841 25.1741 40.6855C23.1939 40.6841 21.2952 39.922 19.895 38.5665C18.4948 37.211 17.7075 35.3729 17.7061 33.4559C17.7075 31.539 18.4948 29.7009 19.895 28.3454C21.2952 26.9899 23.1939 26.2277 25.1741 26.2263ZM28.1885 30.685L24.1585 34.5811L22.1489 32.641L21.1957 33.569L24.1585 36.4398L29.1498 31.6078L28.1885 30.685Z" fill="#00194F"/>
</svg>
