<svg width="38" height="42" viewBox="0 0 38 42" fill="none" xmlns="http://www.w3.org/2000/svg">
<path d="M8.5 4.25C8.5 3.2835 9.2835 2.5 10.25 2.5H22V11.25C22 13.3211 23.6789 15 25.75 15H35.5V35.75C35.5 36.7165 34.7165 37.5 33.75 37.5H22.2608C21.7353 38.4086 21.1029 39.2476 20.3809 40H33.75C36.0972 40 38 38.0972 38 35.75V14.4142C38 13.8175 37.7629 13.2452 37.341 12.8232L25.1768 0.65901C24.7548 0.237054 24.1825 0 23.5858 0H10.25C7.90279 0 6 1.90279 6 4.25V18.9963C6.79632 18.6642 7.63275 18.4091 8.5 18.2402V4.25ZM33.4822 12.5H25.75C25.0596 12.5 24.5 11.9404 24.5 11.25V3.51777L33.4822 12.5ZM22 31C22 37.0751 17.0751 42 11 42C4.92487 42 0 37.0751 0 31C0 24.9249 4.92487 20 11 20C17.0751 20 22 24.9249 22 31ZM12 24C12 23.4477 11.5523 23 11 23C10.4477 23 10 23.4477 10 24V30H4C3.44771 30 3 30.4477 3 31C3 31.5523 3.44771 32 4 32H10V38C10 38.5523 10.4477 39 11 39C11.5523 39 12 38.5523 12 38V32H18C18.5523 32 19 31.5523 19 31C19 30.4477 18.5523 30 18 30H12V24Z" fill="#00194F"/>
</svg>
