<svg width="60" height="60" viewBox="0 0 60 60" fill="none" xmlns="http://www.w3.org/2000/svg">
<path opacity="0.21" fill-rule="evenodd" clip-rule="evenodd" d="M0 30V37C0 49.7025 10.2975 60 23 60H30H37C49.7025 60 60 49.7025 60 37V30V23C60 10.2975 49.7025 0 37 0H30H23C10.2975 0 0 10.2975 0 23V30Z" fill="#57D9A3"/>
<path d="M27.5005 35.669C25.7067 34.4806 23.3753 33.6434 20.7343 33.2765C19.7614 33.1356 18.7802 33.0647 17.7978 33.0643H17.7975H16.8643V30.9357H19.4671C20.1834 30.9405 20.897 31.0299 21.5939 31.2024L21.5939 31.2024L21.6008 31.2041C22.2218 31.3505 22.8264 31.5644 23.4044 31.8422C24.6463 32.4474 25.7482 33.3241 26.6331 34.4133C26.9544 34.8087 27.2442 35.2286 27.5005 35.669ZM39.5319 30.9357H42.1357V33.0643H41.2025V33.0642L41.1946 33.0643C40.2055 33.0763 39.2183 33.1588 38.2402 33.3112C35.5827 33.6809 33.238 34.5269 31.4431 35.7284C32.0608 34.6563 32.87 33.7153 33.8275 32.9555C34.8766 32.123 36.081 31.5262 37.3635 31.202C38.074 31.0264 38.8017 30.937 39.5319 30.9357ZM41.2025 35.5071H44.35V43.35H14.65V35.5071H17.7975V35.5073L17.8102 35.507C18.7018 35.4896 19.5935 35.5373 20.4786 35.6499C22.7359 35.9708 24.712 36.6941 26.176 37.661C27.6476 38.6328 28.5469 39.8103 28.7845 41.0274L28.785 41.0298C28.8296 41.2536 28.8514 41.4817 28.85 41.7104L30.1482 41.7631C30.1645 41.5457 30.2019 41.3306 30.2595 41.1211L30.2677 41.0915L30.273 41.0613C30.4861 39.8513 31.3674 38.6777 32.8378 37.7067C34.3016 36.74 36.2924 36.0159 38.5803 35.6951L38.5828 35.6948C39.4507 35.5696 40.326 35.5069 41.2023 35.5071H41.2025ZM33.8436 25.6388C34.9229 26.5029 35.737 27.6692 36.1915 28.9956C34.7139 29.4401 33.3345 30.1805 32.1329 31.1757C31.0883 32.0409 30.1985 33.0818 29.499 34.2507C28.7935 33.0754 27.8953 32.0301 26.841 31.1633C25.644 30.1792 24.2724 29.4471 22.8046 29.0072C23.2583 27.676 24.0739 26.5055 25.1564 25.6388C26.4016 24.6418 27.9298 24.1027 29.5 24.1027C31.0702 24.1027 32.5984 24.6418 33.8436 25.6388ZM34.0111 19.659L34.6143 19.901L34.0111 19.659C33.7639 20.2749 33.4022 20.8333 32.9475 21.3026C32.4928 21.772 31.9542 22.1431 31.3629 22.3959C30.7716 22.6487 30.1387 22.7786 29.5 22.7786C28.5384 22.7786 27.5966 22.4843 26.7936 21.9305C25.9903 21.3764 25.3612 20.5868 24.9889 19.659C24.6166 18.7311 24.5188 17.7089 24.7089 16.7225C24.899 15.7362 25.3676 14.8329 26.0525 14.1259C26.7372 13.4192 27.607 12.9403 28.5508 12.7465C29.4944 12.5528 30.4727 12.652 31.3629 13.0326C32.2533 13.4134 33.0178 14.0596 33.5571 14.8928C34.0966 15.7262 34.3857 16.7082 34.3857 17.7143C34.3857 18.3822 34.2583 19.043 34.0111 19.659Z" stroke="#57D9A3" stroke-width="1.3"/>
</svg>
