<svg width="60" height="60" viewBox="0 0 60 60" fill="none" xmlns="http://www.w3.org/2000/svg">
<path opacity="0.21" fill-rule="evenodd" clip-rule="evenodd" d="M0 30V37C0 49.7025 10.2975 60 23 60H30H37C49.7025 60 60 49.7025 60 37V30V23C60 10.2975 49.7025 0 37 0H30H23C10.2975 0 0 10.2975 0 23V30Z" fill="#57D9A3"/>
<path d="M20.082 38.0156C19.1101 38.0156 18.16 37.7274 17.3519 37.1875C16.5438 36.6475 15.914 35.88 15.542 34.9821C15.1701 34.0842 15.0728 33.0961 15.2624 32.1429C15.452 31.1896 15.92 30.314 16.6073 29.6268C17.2945 28.9396 18.1701 28.4715 19.1233 28.2819C20.0766 28.0923 21.0646 28.1896 21.9626 28.5616C22.8605 28.9335 23.628 29.5633 24.1679 30.3715C24.7079 31.1796 24.9961 32.1297 24.9961 33.1016C24.9946 34.4044 24.4763 35.6534 23.5551 36.5746C22.6339 37.4959 21.3849 38.0141 20.082 38.0156ZM20.082 29.9219C19.4532 29.9219 18.8384 30.1084 18.3155 30.4578C17.7926 30.8071 17.385 31.3037 17.1444 31.8848C16.9037 32.4658 16.8408 33.1051 16.9634 33.7219C17.0861 34.3387 17.389 34.9053 17.8337 35.3499C18.2783 35.7946 18.8449 36.0975 19.4617 36.2202C20.0785 36.3428 20.7178 36.2799 21.2988 36.0392C21.8799 35.7986 22.3765 35.391 22.7258 34.8681C23.0752 34.3452 23.2617 33.7304 23.2617 33.1016C23.2602 32.2587 22.9247 31.4509 22.3287 30.8549C21.7327 30.2589 20.9249 29.9234 20.082 29.9219Z" fill="#57D9A3"/>
<path d="M24.418 44.9531H15.7461C15.5161 44.9531 15.2955 44.8618 15.1329 44.6991C14.9703 44.5365 14.8789 44.3159 14.8789 44.0859V40.0391C14.8804 39.0429 15.2768 38.088 15.9812 37.3836C16.6856 36.6792 17.6406 36.2828 18.6367 36.2812H21.5273C22.5235 36.2828 23.4784 36.6792 24.1828 37.3836C24.8872 38.088 25.2836 39.0429 25.2852 40.0391V44.0859C25.2852 44.3159 25.1938 44.5365 25.0312 44.6991C24.8685 44.8618 24.648 44.9531 24.418 44.9531ZM16.6133 43.2188H23.5508V40.0391C23.5508 39.5024 23.3376 38.9877 22.9581 38.6083C22.5787 38.2288 22.064 38.0156 21.5273 38.0156H18.6367C18.1001 38.0156 17.5854 38.2288 17.2059 38.6083C16.8265 38.9877 16.6133 39.5024 16.6133 40.0391V43.2188Z" fill="#57D9A3"/>
<path d="M24.707 41.4844C24.5401 41.4847 24.3767 41.4369 24.2363 41.3466C24.0959 41.2564 23.9845 41.1275 23.9156 40.9756C23.8466 40.8236 23.8229 40.6549 23.8475 40.4898C23.872 40.3247 23.9436 40.1702 24.0538 40.0448L32.1475 30.7948C32.3008 30.6216 32.5167 30.5163 32.7476 30.5022C32.9786 30.4881 33.2056 30.5664 33.3789 30.7197C33.5522 30.873 33.6574 31.0889 33.6715 31.3198C33.6856 31.5508 33.6074 31.7778 33.4541 31.9511L25.3603 41.2011C25.2779 41.2922 25.177 41.3645 25.0643 41.4134C24.9516 41.4623 24.8298 41.4865 24.707 41.4844ZM47.2539 17.7812H18.9258C18.6958 17.7812 18.4752 17.6899 18.3126 17.5273C18.15 17.3646 18.0586 17.1441 18.0586 16.9141C18.0586 16.6841 18.15 16.4635 18.3126 16.3009C18.4752 16.1382 18.6958 16.0469 18.9258 16.0469H47.2539C47.4839 16.0469 47.7045 16.1382 47.8671 16.3009C48.0297 16.4635 48.1211 16.6841 48.1211 16.9141C48.1211 17.1441 48.0297 17.3646 47.8671 17.5273C47.7045 17.6899 47.4839 17.7812 47.2539 17.7812ZM47.2539 35.7031H35.1133C34.8833 35.7031 34.6627 35.6118 34.5001 35.4491C34.3375 35.2865 34.2461 35.0659 34.2461 34.8359C34.2461 34.6059 34.3375 34.3854 34.5001 34.2227C34.6627 34.0601 34.8833 33.9688 35.1133 33.9688H47.2539C47.4839 33.9688 47.7045 34.0601 47.8671 34.2227C48.0297 34.3854 48.1211 34.6059 48.1211 34.8359C48.1211 35.0659 48.0297 35.2865 47.8671 35.4491C47.7045 35.6118 47.4839 35.7031 47.2539 35.7031Z" fill="#57D9A3"/>
<path d="M44.9414 35.7031C44.7114 35.7031 44.4908 35.6118 44.3282 35.4491C44.1656 35.2865 44.0742 35.0659 44.0742 34.8359V16.9141C44.0742 16.6841 44.1656 16.4635 44.3282 16.3009C44.4908 16.1382 44.7114 16.0469 44.9414 16.0469C45.1714 16.0469 45.392 16.1382 45.5546 16.3009C45.7172 16.4635 45.8086 16.6841 45.8086 16.9141V34.8359C45.8086 35.0659 45.7172 35.2865 45.5546 35.4491C45.392 35.6118 45.1714 35.7031 44.9414 35.7031ZM21.2383 25.875C21.0083 25.875 20.7877 25.7836 20.6251 25.621C20.4625 25.4584 20.3711 25.2378 20.3711 25.0078V16.9141C20.3711 16.6841 20.4625 16.4635 20.6251 16.3009C20.7877 16.1382 21.0083 16.0469 21.2383 16.0469C21.4683 16.0469 21.6888 16.1382 21.8515 16.3009C22.0141 16.4635 22.1055 16.6841 22.1055 16.9141V25.0078C22.1055 25.2378 22.0141 25.4584 21.8515 25.621C21.6888 25.7836 21.4683 25.875 21.2383 25.875ZM33.957 22.9844H27.5977C27.3677 22.9844 27.1471 22.893 26.9845 22.7304C26.8218 22.5678 26.7305 22.3472 26.7305 22.1172C26.7305 21.8872 26.8218 21.6666 26.9845 21.504C27.1471 21.3414 27.3677 21.25 27.5977 21.25H33.957C34.187 21.25 34.4076 21.3414 34.5702 21.504C34.7329 21.6666 34.8242 21.8872 34.8242 22.1172C34.8242 22.3472 34.7329 22.5678 34.5702 22.7304C34.4076 22.893 34.187 22.9844 33.957 22.9844ZM38.0039 27.6094H27.5977C27.3677 27.6094 27.1471 27.518 26.9845 27.3554C26.8218 27.1928 26.7305 26.9722 26.7305 26.7422C26.7305 26.5122 26.8218 26.2916 26.9845 26.129C27.1471 25.9664 27.3677 25.875 27.5977 25.875H38.0039C38.2339 25.875 38.4545 25.9664 38.6171 26.129C38.7797 26.2916 38.8711 26.5122 38.8711 26.7422C38.8711 26.9722 38.7797 27.1928 38.6171 27.3554C38.4545 27.518 38.2339 27.6094 38.0039 27.6094Z" fill="#57D9A3"/>
</svg>
