<svg width="21" height="23" viewBox="0 0 21 23" fill="none" xmlns="http://www.w3.org/2000/svg">
<path d="M4.08664 7.75C4.56096 5.04276 6.92458 3 9.75 3C12.5754 3 14.939 5.04276 15.4134 7.75L15.5 7.75C17.7091 7.75 19.5 9.54086 19.5 11.75C19.5 11.9371 19.4872 12.1212 19.4623 12.3015C19.0082 11.7654 18.4688 11.3038 17.8651 10.9378C17.5279 9.95576 16.5964 9.25 15.5 9.25L14.7439 9.25002C14.344 9.25004 14.0144 8.93631 13.9948 8.53691C13.8837 6.28125 12.018 4.5 9.75 4.5C7.48202 4.5 5.61629 6.28125 5.50523 8.53691C5.48557 8.93631 5.156 9.25004 4.75612 9.25002L4 9.25C2.61929 9.25 1.5 10.3693 1.5 11.75C1.5 13.1307 2.61929 14.25 4 14.25H8.39996C8.22423 14.7263 8.10269 15.2288 8.0428 15.75H4C1.79086 15.75 0 13.9591 0 11.75C0 9.54086 1.79086 7.75 4.00002 7.75L4.08664 7.75ZM20 16.5C20 19.5376 17.5376 22 14.5 22C11.4624 22 9 19.5376 9 16.5C9 13.4624 11.4624 11 14.5 11C17.5376 11 20 13.4624 20 16.5ZM14 14.7071V19.5C14 19.7761 14.2239 20 14.5 20C14.7761 20 15 19.7761 15 19.5V14.7071L16.6464 16.3536C16.8417 16.5488 17.1583 16.5488 17.3536 16.3536C17.5488 16.1583 17.5488 15.8417 17.3536 15.6464L14.8536 13.1464C14.6583 12.9512 14.3417 12.9512 14.1464 13.1464L11.6464 15.6464C11.4512 15.8417 11.4512 16.1583 11.6464 16.3536C11.8417 16.5488 12.1583 16.5488 12.3536 16.3536L14 14.7071Z" fill="#2E86FB"/>
</svg>
